<svg version="1.1" id="Layer_1" xmlns="http://www.w3.org/2000/svg" xmlns:xlink="http://www.w3.org/1999/xlink" x="0px" y="0px"
	 width="100%" viewBox="0 0 100 100" enable-background="new 0 0 100 100" xml:space="preserve">
<path fill="#FBFBFB" opacity="1.000000" stroke="none" 
	d="
M56.000000,101.000000 
	C37.333336,101.000000 19.166674,101.000000 1.000007,101.000000 
	C1.000005,67.666679 1.000005,34.333351 1.000002,1.000021 
	C34.333317,1.000014 67.666634,1.000014 100.999969,1.000007 
	C100.999977,34.333313 100.999977,67.666626 100.999985,100.999969 
	C86.166664,101.000000 71.333336,101.000000 56.000000,101.000000 
M8.104786,58.527058 
	C8.404423,58.638676 8.704061,58.750290 9.894359,59.049301 
	C12.281913,59.049301 14.669467,59.049301 17.172508,59.049301 
	C17.076942,56.948654 17.010038,55.478035 17.148621,53.234837 
	C17.133955,52.170231 17.119287,51.105621 17.545677,49.875935 
	C17.545677,49.875935 17.973236,50.073353 17.926573,50.701694 
	C18.418354,51.838715 18.910137,52.975735 19.588533,54.928036 
	C19.920626,58.428974 21.800688,59.684387 25.207983,58.917271 
	C26.775948,58.564262 28.389904,58.415520 30.759821,58.756351 
	C39.508221,58.756351 48.256622,58.756351 57.182316,58.756351 
	C57.076622,56.988560 56.987667,55.500774 57.092995,53.321621 
	C57.396923,52.543869 57.700851,51.766113 57.986660,51.786327 
	C58.498421,53.227196 59.010185,54.668064 59.635105,56.427528 
	C61.803589,55.278706 65.750290,57.893795 65.517570,52.270668 
	C66.028564,52.849468 66.539551,53.428268 66.930466,54.880238 
	C67.094513,56.256672 67.258560,57.633106 67.396637,58.791603 
	C70.732071,58.791603 73.483887,58.791603 76.478935,58.791603 
	C75.810837,52.922985 75.178085,47.364830 74.678955,41.085159 
	C74.464081,40.391659 74.249214,39.698158 74.153122,38.183102 
	C75.042297,34.751247 75.931473,31.319393 76.820648,27.887537 
	C77.390068,27.921762 77.959496,27.955988 78.528915,27.990213 
	C79.320641,29.821363 80.112358,31.652514 81.094910,33.925041 
	C83.974350,34.215965 88.056549,35.834099 89.493309,29.689184 
	C89.325645,29.225517 89.157990,28.761850 88.288765,28.012903 
	C86.139526,22.622700 81.391357,23.736055 77.286041,23.925848 
	C74.541565,24.052723 70.604881,24.268776 69.375595,25.993946 
	C66.680611,29.776070 65.367508,34.542870 63.144169,39.422123 
	C63.081951,40.241596 63.019733,41.061066 62.293209,42.084759 
	C61.833344,41.052681 61.373474,40.020599 61.009148,38.130249 
	C60.306274,33.144962 59.859737,32.971336 50.965675,34.333893 
	C50.780727,35.875553 50.589024,37.473534 50.363373,39.098656 
	C50.363373,39.098656 50.381508,39.163605 50.107105,40.094074 
	C49.389088,44.355358 48.671070,48.616638 47.176598,52.920582 
	C45.114433,52.724396 43.052269,52.528210 40.380856,52.115490 
	C39.952980,52.063286 39.525108,52.011078 38.985279,51.473026 
	C38.985279,51.473026 38.829620,50.999371 39.067272,50.196053 
	C41.654541,49.680058 44.241810,49.164059 47.031372,48.607719 
	C46.975346,47.352482 46.918892,46.087593 46.876888,45.146542 
	C44.554119,42.957058 39.142239,46.869316 38.827827,40.704666 
	C41.955257,40.436634 44.387581,40.228176 46.827644,40.019054 
	C46.827644,37.834118 46.827644,35.939312 46.827644,33.993004 
	C41.420300,33.993004 36.320503,33.993004 30.801023,33.993004 
	C30.889425,35.802788 30.967445,37.399975 30.825575,39.840763 
	C30.892256,43.894608 30.958937,47.948456 30.820904,52.712337 
	C30.574533,54.062912 30.328163,55.413483 30.095474,56.030304 
	C28.027830,52.045578 26.651794,48.191895 28.035954,43.383335 
	C29.594355,37.969463 26.642063,34.402504 20.903223,33.994614 
	C16.957758,33.714184 12.970386,34.023365 8.445743,34.000893 
	C8.365080,34.332241 8.284417,34.663586 8.060245,35.784691 
	C8.110919,36.850536 8.161593,37.916378 8.027476,39.777714 
	C8.092173,40.859512 8.156869,41.941311 8.082598,43.943302 
	C8.132912,48.626495 8.183226,53.309692 8.104786,58.527058 
M94.200996,46.450447 
	C98.883469,41.298275 92.732513,38.781456 92.042137,34.669273 
	C89.232994,36.169670 87.069580,37.325172 84.515800,38.689175 
	C86.145439,41.585678 87.665359,44.287167 88.904945,47.715073 
	C86.784904,47.715073 84.664871,47.715073 81.964783,47.715073 
	C81.232368,48.795555 80.037598,50.558132 78.862083,52.292305 
	C80.174675,54.274952 81.343262,56.040092 82.485909,57.766056 
	C90.991119,53.742817 92.063248,52.696869 94.200996,46.450447 
M43.581245,66.023125 
	C43.342880,67.927467 43.104519,69.831810 42.803638,72.235611 
	C47.249741,70.074669 43.377922,62.635693 50.396175,63.152321 
	C49.909569,66.185188 49.480587,68.858894 48.959858,72.104446 
	C52.090843,71.849602 54.615452,71.644104 57.140064,71.438614 
	C57.117569,71.041725 57.095070,70.644844 57.072575,70.247955 
	C55.365971,70.036125 53.659370,69.824295 51.952766,69.612473 
	C51.847435,69.205437 51.742100,68.798401 51.636768,68.391365 
	C53.565819,67.750343 55.494865,67.109322 58.482758,66.116447 
	C55.969639,65.442993 54.435860,65.031975 52.902081,64.620956 
	C52.908138,64.348282 52.914200,64.075600 52.920258,63.802925 
	C54.771069,63.399315 56.621876,62.995708 58.472687,62.592098 
	C58.438847,62.308075 58.405006,62.024055 58.371170,61.740032 
	C52.727024,61.740032 47.082878,61.740032 41.680717,61.740032 
	C42.497669,63.140652 43.126183,64.218201 43.581245,66.023125 
M18.472679,64.287849 
	C18.060883,64.868118 17.649086,65.448387 16.947273,66.437332 
	C16.433897,64.344177 16.060194,62.820492 15.405294,60.150311 
	C13.567374,62.570122 12.320203,64.212151 10.970499,65.989174 
	C10.372953,64.383858 9.895924,63.102306 9.418894,61.820759 
	C9.054793,61.910336 8.690692,61.999912 8.326591,62.089489 
	C8.326591,65.037346 8.326591,67.985199 8.326591,72.471924 
	C10.807627,69.997017 12.427612,68.381035 14.234170,66.578941 
	C14.680970,68.609612 15.039489,70.239052 15.398007,71.868492 
	C15.822059,71.971466 16.246111,72.074440 16.670162,72.177414 
	C18.381586,68.727585 20.093008,65.277756 21.804432,61.827923 
	C21.431601,61.608509 21.058769,61.389095 20.685938,61.169682 
	C20.062170,61.997971 19.438402,62.826263 18.472679,64.287849 
M82.759926,62.506168 
	C82.496117,62.310810 82.190758,61.908543 81.974876,61.951885 
	C79.646149,62.419498 76.695152,62.284000 75.211716,63.686092 
	C73.996239,64.834915 73.899834,68.053436 74.541542,69.933144 
	C74.898605,70.979050 77.883484,71.840042 79.500763,71.591522 
	C82.625214,71.111404 83.443550,68.540718 83.105919,65.577576 
	C83.014923,64.778969 83.106018,63.959610 82.759926,62.506168 
M21.887066,70.955536 
	C24.067356,70.783562 26.247646,70.611588 29.263407,70.373711 
	C28.474367,68.141296 27.388826,65.070007 26.303289,61.998711 
	C24.492821,64.228836 22.619009,66.411957 20.908960,68.716599 
	C20.368202,69.445389 20.265137,70.498955 19.961761,71.403885 
	C20.408752,71.434547 20.855742,71.465210 21.887066,70.955536 
M39.154461,63.528221 
	C37.793713,60.363686 35.146465,60.207169 33.199539,62.138397 
	C28.836798,66.465958 36.352768,66.484947 36.441280,69.824883 
	C34.461163,69.638000 32.748253,69.476334 29.937435,69.211044 
	C32.786026,72.295280 35.348648,73.057503 37.534748,70.997482 
	C42.435287,66.379593 34.510544,66.410912 34.283386,62.915497 
	C35.974163,63.381245 37.302319,63.747105 39.154461,63.528221 
M65.786530,71.758614 
	C67.008392,71.758614 68.230263,71.758614 68.444168,71.758614 
	C67.610229,69.689949 65.728050,67.270508 66.299454,65.812912 
	C66.884064,64.321617 69.873581,63.773079 71.950645,62.742264 
	C70.538750,60.219578 67.836212,60.313000 65.545677,62.421200 
	C62.733803,65.009247 61.882488,68.242142 65.786530,71.758614 
M93.787888,71.647148 
	C94.643982,68.292130 95.500076,64.937103 96.356171,61.582081 
	C95.672447,61.291718 94.988716,61.001354 94.304993,60.710991 
	C93.314003,62.494606 91.730370,64.206604 91.503685,66.082581 
	C91.289780,67.852684 92.503716,69.795334 93.787888,71.647148 
M90.736809,70.848099 
	C90.038597,67.870628 89.340385,64.893158 88.486626,61.252392 
	C84.340347,63.673363 85.640701,67.753609 85.243675,71.202095 
	C86.049072,69.729393 86.854469,68.256691 87.237061,67.557106 
	C88.115845,68.705574 89.149323,70.056206 90.736809,70.848099 
z"/>
<path fill="#080808" opacity="1.000000" stroke="none" 
	d="
M29.983006,58.174152 
	C28.389904,58.415520 26.775948,58.564262 25.207983,58.917271 
	C21.800688,59.684387 19.920626,58.428974 19.926548,54.498421 
	C24.063232,52.164104 26.043325,43.051693 22.813787,38.204075 
	C22.446962,40.675060 22.359970,42.310108 21.894508,43.829189 
	C21.730913,44.363098 20.639116,44.612598 19.970524,44.611984 
	C18.834555,39.285053 18.834555,39.285053 15.861400,40.317924 
	C15.048260,42.162472 14.375926,43.688614 13.299723,46.131512 
	C12.833522,41.954624 12.919291,38.459042 8.212268,38.982224 
	C8.161593,37.916378 8.110919,36.850536 8.313984,35.282875 
	C8.787556,34.589531 8.932229,34.352180 9.001743,34.069012 
	C12.970386,34.023365 16.957758,33.714184 20.903223,33.994614 
	C26.642063,34.402504 29.594355,37.969463 28.035954,43.383335 
	C26.651794,48.191895 28.027830,52.045578 30.070068,56.632046 
	C30.023996,57.547234 30.003443,57.860691 29.983006,58.174152 
z"/>
<path fill="#080808" opacity="1.000000" stroke="none" 
	d="
M63.490128,38.907581 
	C65.367508,34.542870 66.680611,29.776070 69.375595,25.993946 
	C70.604881,24.268776 74.541565,24.052723 77.286041,23.925848 
	C81.391357,23.736055 86.139526,22.622700 88.636284,28.450306 
	C88.997452,29.280447 89.011093,29.673183 89.024742,30.065922 
	C88.056549,35.834099 83.974350,34.215965 81.094910,33.925041 
	C80.112358,31.652514 79.320641,29.821363 78.528915,27.990213 
	C77.959496,27.955988 77.390068,27.921762 76.820648,27.887537 
	C75.931473,31.319393 75.042297,34.751247 73.624466,38.596947 
	C69.893913,38.976391 66.692017,38.941986 63.490128,38.907581 
z"/>
<path fill="#070707" opacity="1.000000" stroke="none" 
	d="
M30.371414,58.465252 
	C30.003443,57.860691 30.023996,57.547234 30.063229,56.998924 
	C30.328163,55.413483 30.574533,54.062912 31.318430,52.354324 
	C32.869316,52.019238 33.922676,52.042168 34.990170,52.422905 
	C36.566814,55.622131 36.566814,55.622131 39.097233,51.958874 
	C39.525108,52.011078 39.952980,52.063286 40.771614,52.560612 
	C43.458469,54.691608 45.769444,57.168350 47.953053,52.877922 
	C48.671070,48.616638 49.389088,44.355358 50.409142,40.112633 
	C54.992290,42.238506 55.477581,45.888081 55.127674,50.138573 
	C55.026047,51.373081 56.271027,52.718441 56.898712,54.012985 
	C56.987667,55.500774 57.076622,56.988560 57.182316,58.756351 
	C48.256622,58.756351 39.508221,58.756351 30.371414,58.465252 
z"/>
<path fill="#0C0C0C" opacity="1.000000" stroke="none" 
	d="
M31.045464,38.997162 
	C30.967445,37.399975 30.889425,35.802788 30.801023,33.993004 
	C36.320503,33.993004 41.420300,33.993004 46.827644,33.993004 
	C46.827644,35.939312 46.827644,37.834118 46.827644,40.019054 
	C44.387581,40.228176 41.955257,40.436634 38.827827,40.704666 
	C39.142239,46.869316 44.554119,42.957058 46.876888,45.146542 
	C46.918892,46.087593 46.975346,47.352482 47.031372,48.607719 
	C44.241810,49.164059 41.654541,49.680058 38.645782,50.597847 
	C37.820934,50.999535 37.417583,50.999424 37.007805,50.593903 
	C36.339981,47.519859 36.000999,44.706093 34.890705,42.239532 
	C34.270210,40.861084 32.369370,40.058975 31.045464,38.997162 
z"/>
<path fill="#191919" opacity="1.000000" stroke="none" 
	d="
M19.971146,44.991962 
	C20.639116,44.612598 21.730913,44.363098 21.894508,43.829189 
	C22.359970,42.310108 22.446962,40.675060 22.813787,38.204075 
	C26.043325,43.051693 24.063232,52.164104 19.833241,54.090782 
	C18.910137,52.975735 18.418354,51.838715 17.957924,50.044235 
	C17.513636,48.806622 17.037994,48.226471 16.562355,47.646320 
	C16.743111,48.444553 16.923864,49.242783 17.104620,50.041016 
	C17.119287,51.105621 17.133955,52.170231 16.674772,53.651516 
	C12.735397,55.645531 11.230855,54.658188 10.830837,50.735466 
	C10.562429,48.103359 9.132046,45.589741 8.221565,43.023109 
	C8.156869,41.941311 8.092173,40.859512 8.119872,39.379967 
	C12.919291,38.459042 12.833522,41.954624 13.299723,46.131512 
	C14.375926,43.688614 15.048260,42.162472 16.219757,40.387001 
	C17.802996,41.755768 18.887070,43.373867 19.971146,44.991962 
z"/>
<path fill="#1E1E1E" opacity="1.000000" stroke="none" 
	d="
M63.317146,39.164852 
	C66.692017,38.941986 69.893913,38.976391 73.565071,39.007729 
	C74.249214,39.698158 74.464081,40.391659 74.142250,41.489735 
	C71.444160,42.115906 69.282776,42.337505 67.121391,42.559101 
	C67.145462,43.091911 67.169525,43.624722 67.193596,44.157532 
	C69.112022,44.763878 71.030457,45.370228 72.948883,45.976578 
	C72.921753,46.335957 72.894615,46.695332 72.867485,47.054710 
	C70.939682,47.673573 69.011887,48.292439 67.084084,48.911301 
	C68.049713,50.356102 69.053505,50.581585 69.937424,51.038807 
	C71.213249,51.698750 72.402107,52.526817 73.628075,53.283150 
	C72.073654,53.678894 70.533279,54.155815 68.957581,54.428669 
	C68.364037,54.531448 67.688629,54.161510 67.050545,54.007072 
	C66.539551,53.428268 66.028564,52.849468 65.043755,52.221092 
	C64.026566,49.490353 63.483192,46.809181 62.961380,43.753082 
	C62.974468,42.878944 62.965992,42.379742 62.957516,41.880539 
	C63.019733,41.061066 63.081951,40.241596 63.317146,39.164852 
z"/>
<path fill="#131313" opacity="1.000000" stroke="none" 
	d="
M93.682243,46.981396 
	C92.063248,52.696869 90.991119,53.742817 82.485909,57.766056 
	C81.343262,56.040092 80.174675,54.274952 78.862083,52.292305 
	C80.037598,50.558132 81.232368,48.795555 81.964783,47.715073 
	C84.664871,47.715073 86.784904,47.715073 89.420006,47.346252 
	C91.184128,46.978752 92.433182,46.980072 93.682243,46.981396 
z"/>
<path fill="#494949" opacity="1.000000" stroke="none" 
	d="
M43.667969,65.659439 
	C43.126183,64.218201 42.497669,63.140652 41.680717,61.740032 
	C47.082878,61.740032 52.727024,61.740032 58.371170,61.740032 
	C58.405006,62.024055 58.438847,62.308075 58.472687,62.592098 
	C56.621876,62.995708 54.771069,63.399315 52.920258,63.802925 
	C52.914200,64.075600 52.908138,64.348282 52.902081,64.620956 
	C54.435860,65.031975 55.969639,65.442993 58.482758,66.116447 
	C55.494865,67.109322 53.565819,67.750343 51.636768,68.391365 
	C51.742100,68.798401 51.847435,69.205437 51.952766,69.612473 
	C53.659370,69.824295 55.365971,70.036125 57.072575,70.247955 
	C57.095070,70.644844 57.117569,71.041725 57.140064,71.438614 
	C54.615452,71.644104 52.090843,71.849602 48.959858,72.104446 
	C49.480587,68.858894 49.909569,66.185188 50.396175,63.152321 
	C43.377922,62.635693 47.249741,70.074669 42.803638,72.235611 
	C43.104519,69.831810 43.342880,67.927467 43.667969,65.659439 
z"/>
<path fill="#060606" opacity="1.000000" stroke="none" 
	d="
M66.990509,54.443657 
	C67.688629,54.161510 68.364037,54.531448 68.957581,54.428669 
	C70.533279,54.155815 72.073654,53.678894 73.628075,53.283150 
	C72.402107,52.526817 71.213249,51.698750 69.937424,51.038807 
	C69.053505,50.581585 68.049713,50.356102 67.084084,48.911301 
	C69.011887,48.292439 70.939682,47.673573 72.867485,47.054710 
	C72.894615,46.695332 72.921753,46.335957 72.948883,45.976578 
	C71.030457,45.370228 69.112022,44.763878 67.193596,44.157532 
	C67.169525,43.624722 67.145462,43.091911 67.121391,42.559101 
	C69.282776,42.337505 71.444160,42.115906 74.075439,41.850491 
	C75.178085,47.364830 75.810837,52.922985 76.478935,58.791603 
	C73.483887,58.791603 70.732071,58.791603 67.396637,58.791603 
	C67.258560,57.633106 67.094513,56.256672 66.990509,54.443657 
z"/>
<path fill="#080808" opacity="1.000000" stroke="none" 
	d="
M93.941620,46.715919 
	C92.433182,46.980072 91.184128,46.978752 89.560165,46.983044 
	C87.665359,44.287167 86.145439,41.585678 84.515800,38.689175 
	C87.069580,37.325172 89.232994,36.169670 92.042137,34.669273 
	C92.732513,38.781456 98.883469,41.298275 93.941620,46.715919 
z"/>
<path fill="#383838" opacity="1.000000" stroke="none" 
	d="
M18.643656,63.971199 
	C19.438402,62.826263 20.062170,61.997971 20.685938,61.169682 
	C21.058769,61.389095 21.431601,61.608509 21.804432,61.827923 
	C20.093008,65.277756 18.381586,68.727585 16.670162,72.177414 
	C16.246111,72.074440 15.822059,71.971466 15.398007,71.868492 
	C15.039489,70.239052 14.680970,68.609612 14.234170,66.578941 
	C12.427612,68.381035 10.807627,69.997017 8.326591,72.471924 
	C8.326591,67.985199 8.326591,65.037346 8.326591,62.089489 
	C8.690692,61.999912 9.054793,61.910336 9.418894,61.820759 
	C9.895924,63.102306 10.372953,64.383858 10.970499,65.989174 
	C12.320203,64.212151 13.567374,62.570122 15.405294,60.150311 
	C16.060194,62.820492 16.433897,64.344177 16.947273,66.437332 
	C17.649086,65.448387 18.060883,64.868118 18.643656,63.971199 
z"/>
<path fill="#050505" opacity="1.000000" stroke="none" 
	d="
M62.939823,44.128014 
	C63.483192,46.809181 64.026566,49.490353 64.744476,52.505821 
	C65.750290,57.893795 61.803589,55.278706 59.635105,56.427528 
	C59.010185,54.668064 58.498421,53.227196 58.049034,50.956398 
	C58.242001,47.545170 58.372593,44.963863 58.533970,41.774113 
	C60.735062,42.950085 61.837444,43.539047 62.939823,44.128014 
z"/>
<path fill="#202020" opacity="1.000000" stroke="none" 
	d="
M62.961380,43.753082 
	C61.837444,43.539047 60.735062,42.950085 58.533970,41.774113 
	C58.372593,44.963863 58.242001,47.545170 58.058090,50.557415 
	C57.700851,51.766113 57.396923,52.543869 56.995857,53.667305 
	C56.271027,52.718441 55.026047,51.373081 55.127674,50.138573 
	C55.477581,45.888081 54.992290,42.238506 50.546341,39.647396 
	C50.381508,39.163605 50.363373,39.098656 50.875908,39.071922 
	C54.563499,39.026302 57.738552,39.007408 60.913605,38.988518 
	C61.373474,40.020599 61.833344,41.052681 62.625362,41.982651 
	C62.965992,42.379742 62.974468,42.878944 62.961380,43.753082 
z"/>
<path fill="#020202" opacity="1.000000" stroke="none" 
	d="
M8.152081,43.483208 
	C9.132046,45.589741 10.562429,48.103359 10.830837,50.735466 
	C11.230855,54.658188 12.735397,55.645531 16.572029,54.037804 
	C17.010038,55.478035 17.076942,56.948654 17.172508,59.049301 
	C14.669467,59.049301 12.281913,59.049301 9.375683,58.766693 
	C8.716278,58.235195 8.508455,58.071465 8.233540,57.992886 
	C8.183226,53.309692 8.132912,48.626495 8.152081,43.483208 
z"/>
<path fill="#171717" opacity="1.000000" stroke="none" 
	d="
M30.935520,39.418961 
	C32.369370,40.058975 34.270210,40.861084 34.890705,42.239532 
	C36.000999,44.706093 36.339981,47.519859 36.834457,50.841736 
	C36.103706,51.685017 35.539871,51.875057 34.976036,52.065094 
	C33.922676,52.042168 32.869316,52.019238 31.420788,51.999306 
	C30.958937,47.948456 30.892256,43.894608 30.935520,39.418961 
z"/>
<path fill="#3A3A3A" opacity="1.000000" stroke="none" 
	d="
M82.936722,62.827972 
	C83.106018,63.959610 83.014923,64.778969 83.105919,65.577576 
	C83.443550,68.540718 82.625214,71.111404 79.500763,71.591522 
	C77.883484,71.840042 74.898605,70.979050 74.541542,69.933144 
	C73.899834,68.053436 73.996239,64.834915 75.211716,63.686092 
	C76.695152,62.284000 79.646149,62.419498 81.974876,61.951885 
	C82.190758,61.908543 82.496117,62.310810 82.936722,62.827972 
M76.291954,68.997169 
	C79.216873,71.345169 80.613281,69.366478 81.219315,66.901794 
	C81.480721,65.838684 80.381042,64.440910 79.899673,63.195168 
	C78.593925,64.385414 77.244949,65.533852 76.019142,66.801414 
	C75.775856,67.052986 76.004944,67.761375 76.291954,68.997169 
z"/>
<path fill="#3A3A3A" opacity="1.000000" stroke="none" 
	d="
M21.594898,71.225708 
	C20.855742,71.465210 20.408752,71.434547 19.961761,71.403885 
	C20.265137,70.498955 20.368202,69.445389 20.908960,68.716599 
	C22.619009,66.411957 24.492821,64.228836 26.303288,61.998711 
	C27.388826,65.070007 28.474367,68.141296 29.263407,70.373711 
	C26.247646,70.611588 24.067356,70.783562 21.594898,71.225708 
z"/>
<path fill="#080808" opacity="1.000000" stroke="none" 
	d="
M60.961380,38.559380 
	C57.738552,39.007408 54.563499,39.026302 50.892883,39.058353 
	C50.589024,37.473534 50.780727,35.875553 50.965675,34.333893 
	C59.859737,32.971336 60.306274,33.144962 60.961380,38.559380 
z"/>
<path fill="#3C3C3C" opacity="1.000000" stroke="none" 
	d="
M38.892471,63.820591 
	C37.302319,63.747105 35.974163,63.381245 34.283386,62.915497 
	C34.510544,66.410912 42.435287,66.379593 37.534748,70.997482 
	C35.348648,73.057503 32.786026,72.295280 29.937435,69.211044 
	C32.748253,69.476334 34.461163,69.638000 36.441280,69.824883 
	C36.352768,66.484947 28.836798,66.465958 33.199539,62.138397 
	C35.146465,60.207169 37.793713,60.363686 38.892471,63.820591 
z"/>
<path fill="#4C4C4C" opacity="1.000000" stroke="none" 
	d="
M65.470665,71.564606 
	C61.882488,68.242142 62.733803,65.009247 65.545677,62.421200 
	C67.836212,60.313000 70.538750,60.219578 71.950645,62.742264 
	C69.873581,63.773079 66.884064,64.321617 66.299454,65.812912 
	C65.728050,67.270508 67.610229,69.689949 68.444168,71.758614 
	C68.230263,71.758614 67.008392,71.758614 65.470665,71.564606 
z"/>
<path fill="#3C3C3C" opacity="1.000000" stroke="none" 
	d="
M93.438721,71.654617 
	C92.503716,69.795334 91.289780,67.852684 91.503685,66.082581 
	C91.730370,64.206604 93.314003,62.494606 94.304993,60.710991 
	C94.988716,61.001354 95.672447,61.291718 96.356171,61.582081 
	C95.500076,64.937103 94.643982,68.292130 93.438721,71.654617 
z"/>
<path fill="#2C2C2C" opacity="1.000000" stroke="none" 
	d="
M90.459808,71.127472 
	C89.149323,70.056206 88.115845,68.705574 87.237061,67.557106 
	C86.854469,68.256691 86.049072,69.729393 85.243675,71.202095 
	C85.640701,67.753609 84.340347,63.673363 88.486626,61.252392 
	C89.340385,64.893158 90.038597,67.870628 90.459808,71.127472 
z"/>
<path fill="#0D0D0D" opacity="1.000000" stroke="none" 
	d="
M47.564827,52.899254 
	C45.769444,57.168350 43.458469,54.691608 41.076241,52.668877 
	C43.052269,52.528210 45.114433,52.724396 47.564827,52.899254 
z"/>
<path fill="#0D0D0D" opacity="1.000000" stroke="none" 
	d="
M34.990170,52.422905 
	C35.539871,51.875057 36.103706,51.685017 36.840881,51.247147 
	C37.417583,50.999424 37.820934,50.999535 38.526955,50.999508 
	C38.829620,50.999371 38.985279,51.473026 39.041256,51.715950 
	C36.566814,55.622131 36.566814,55.622131 34.990170,52.422905 
z"/>
<path fill="#1B1B1B" opacity="1.000000" stroke="none" 
	d="
M17.325150,49.958473 
	C16.923864,49.242783 16.743111,48.444553 16.562355,47.646320 
	C17.037994,48.226471 17.513636,48.806622 17.981256,49.730064 
	C17.973236,50.073353 17.545677,49.875935 17.325150,49.958473 
z"/>
<path fill="#0D0D0D" opacity="1.000000" stroke="none" 
	d="
M89.259026,29.877552 
	C89.011093,29.673183 88.997452,29.280447 88.987061,28.592945 
	C89.157990,28.761850 89.325645,29.225517 89.259026,29.877552 
z"/>
<path fill="#191919" opacity="1.000000" stroke="none" 
	d="
M8.169163,58.259972 
	C8.508455,58.071465 8.716278,58.235195 8.930353,58.672993 
	C8.704061,58.750290 8.404423,58.638676 8.169163,58.259972 
z"/>
<path fill="#191919" opacity="1.000000" stroke="none" 
	d="
M8.723743,34.034950 
	C8.932229,34.352180 8.787556,34.589531 8.385738,34.887997 
	C8.284417,34.663586 8.365080,34.332241 8.723743,34.034950 
z"/>
<path fill="#1B1B1B" opacity="1.000000" stroke="none" 
	d="
M19.970524,44.611984 
	C18.887070,43.373867 17.802996,41.755768 16.360563,40.068596 
	C18.834555,39.285053 18.834555,39.285053 19.970524,44.611984 
z"/>
<path fill="#EFEFEF" opacity="1.000000" stroke="none" 
	d="
M76.154076,68.628143 
	C76.004944,67.761375 75.775856,67.052986 76.019142,66.801414 
	C77.244949,65.533852 78.593925,64.385414 79.899673,63.195168 
	C80.381042,64.440910 81.480721,65.838684 81.219315,66.901794 
	C80.613281,69.366478 79.216873,71.345169 76.154076,68.628143 
z"/>
</svg>